<svg width="132" height="20" fill="none" xmlns="http://www.w3.org/2000/svg"><path d="M16.216 13.62a3.411 3.411 0 0 1-1.668-.408 2.976 2.976 0 0 1-1.14-1.152A3.343 3.343 0 0 1 13 10.404c0-.624.136-1.18.408-1.668a2.894 2.894 0 0 1 1.14-1.14c.488-.28 1.044-.42 1.668-.42.664 0 1.256.16 1.776.48.528.32.904.78 1.128 1.38l-1.104.18a1.636 1.636 0 0 0-.684-.696 2.045 2.045 0 0 0-1.044-.264c-.608 0-1.104.2-1.488.6-.376.4-.564.916-.564 1.548s.188 1.148.564 1.548c.384.392.88.588 1.488.588.408 0 .768-.092 1.08-.276.32-.184.552-.428.696-.732l1.104.18a2.724 2.724 0 0 1-1.152 1.416 3.38 3.38 0 0 1-1.8.492ZM26.192 10.356c0 .16-.004.284-.012.372h-5.124c.064.552.28.992.648 1.32.368.328.836.492 1.404.492.392 0 .74-.076 1.044-.228a1.75 1.75 0 0 0 .708-.624l1.104.18c-.24.56-.628.992-1.164 1.296a3.471 3.471 0 0 1-1.764.456 3.343 3.343 0 0 1-1.656-.408 2.976 2.976 0 0 1-1.14-1.152 3.343 3.343 0 0 1-.408-1.656c0-.624.136-1.18.408-1.668a2.916 2.916 0 0 1 1.128-1.14c.48-.28 1.028-.42 1.644-.42.608 0 1.152.14 1.632.42.488.272.868.652 1.14 1.14.272.48.408 1.02.408 1.62Zm-3.18-2.136c-.472 0-.88.14-1.224.42-.336.28-.56.656-.672 1.128h3.792a1.938 1.938 0 0 0-.672-1.116c-.336-.288-.744-.432-1.224-.432ZM27.329 15.96V7.296h.852l.288 1.032c.256-.328.58-.6.972-.816.4-.224.864-.336 1.392-.336.584 0 1.104.14 1.56.42.456.272.812.652 1.068 1.14.264.488.396 1.044.396 1.668 0 .616-.132 1.168-.396 1.656a2.909 2.909 0 0 1-1.068 1.152 2.986 2.986 0 0 1-1.56.408c-.512 0-.964-.104-1.356-.312a3.296 3.296 0 0 1-.972-.792v3.444h-1.176Zm3.252-3.396c.4 0 .756-.092 1.068-.276.312-.184.552-.44.72-.768.176-.328.264-.7.264-1.116 0-.416-.088-.788-.264-1.116a1.853 1.853 0 0 0-.72-.768 2.063 2.063 0 0 0-1.068-.276c-.4 0-.76.092-1.08.276-.312.184-.556.44-.732.768-.176.328-.264.7-.264 1.116 0 .416.088.788.264 1.116.176.328.42.584.732.768.32.184.68.276 1.08.276ZM39.238 10.248c.32.12.576.316.768.588.2.264.3.576.3.936 0 .328-.096.624-.288.888a1.855 1.855 0 0 1-.78.624 2.9 2.9 0 0 1-1.152.216h-2.964V7.296h2.856c.408 0 .772.072 1.092.216.32.144.568.34.744.588.184.248.276.532.276.852 0 .304-.076.568-.228.792a1.41 1.41 0 0 1-.624.504Zm-2.94-1.956v1.524h1.68c.272 0 .496-.068.672-.204a.682.682 0 0 0 .264-.552.682.682 0 0 0-.264-.552c-.176-.144-.4-.216-.672-.216h-1.68Zm1.788 4.212c.312 0 .564-.08.756-.24a.774.774 0 0 0 .288-.624.774.774 0 0 0-.288-.624c-.192-.16-.444-.24-.756-.24h-1.788v1.728h1.788ZM43.366 13.5h-1.74V7.296h1.14v4.884h.18l2.508-4.884h1.74V13.5h-1.14V8.628h-.18L43.366 13.5ZM51.654 13.62a3.411 3.411 0 0 1-1.669-.408 2.976 2.976 0 0 1-1.14-1.152 3.343 3.343 0 0 1-.407-1.656c0-.624.136-1.18.407-1.668a2.894 2.894 0 0 1 1.14-1.14c.489-.28 1.044-.42 1.669-.42.663 0 1.255.16 1.775.48.529.32.904.78 1.128 1.38l-1.104.18a1.636 1.636 0 0 0-.684-.696 2.045 2.045 0 0 0-1.044-.264c-.608 0-1.104.2-1.488.6-.376.4-.564.916-.564 1.548s.188 1.148.564 1.548c.384.392.88.588 1.488.588.408 0 .768-.092 1.08-.276.32-.184.553-.428.697-.732l1.103.18a2.724 2.724 0 0 1-1.151 1.416 3.38 3.38 0 0 1-1.8.492ZM60.96 7.176c.768 0 1.372.252 1.812.756.448.496.672 1.192.672 2.088v3.48h-.84l-.276-.972c-.2.312-.468.572-.804.78-.336.208-.74.312-1.212.312-.416 0-.788-.084-1.116-.252a1.905 1.905 0 0 1-.768-.696 1.931 1.931 0 0 1-.276-1.02c0-.584.232-1.052.696-1.404.464-.352 1.136-.528 2.016-.528h1.404c-.032-.488-.168-.864-.408-1.128-.24-.272-.56-.408-.96-.408-.304 0-.572.072-.804.216a1.428 1.428 0 0 0-.528.564l-1.092-.18c.16-.496.468-.888.924-1.176a2.86 2.86 0 0 1 1.56-.432Zm-.396 5.448c.504 0 .912-.164 1.224-.492.32-.336.48-.796.48-1.38v-.072H60.9c-1.04 0-1.56.312-1.56.936a.9.9 0 0 0 .336.732c.224.184.52.276.888.276ZM69.109 10.248c.32.12.576.316.768.588.2.264.3.576.3.936 0 .328-.096.624-.288.888a1.855 1.855 0 0 1-.78.624 2.9 2.9 0 0 1-1.152.216h-2.964V7.296h2.856c.408 0 .772.072 1.092.216.32.144.568.34.744.588.184.248.276.532.276.852 0 .304-.076.568-.228.792a1.41 1.41 0 0 1-.624.504Zm-2.94-1.956v1.524h1.68c.272 0 .496-.068.672-.204a.682.682 0 0 0 .264-.552.682.682 0 0 0-.264-.552c-.176-.144-.4-.216-.672-.216h-1.68Zm1.788 4.212c.312 0 .564-.08.756-.24A.774.774 0 0 0 69 11.64a.774.774 0 0 0-.288-.624c-.192-.16-.444-.24-.756-.24h-1.788v1.728h1.788ZM74.103 13.5h-1.175V8.376H70.78v-1.08h5.471v1.08h-2.148V13.5ZM79.956 13.62c-.632 0-1.196-.136-1.692-.408a2.954 2.954 0 0 1-1.164-1.14c-.28-.488-.42-1.044-.42-1.668 0-.624.14-1.18.42-1.668.28-.488.668-.868 1.164-1.14.496-.28 1.06-.42 1.692-.42.632 0 1.196.14 1.692.42.496.272.884.652 1.164 1.14.28.488.42 1.044.42 1.668 0 .624-.14 1.18-.42 1.668-.28.488-.668.868-1.164 1.14-.496.272-1.06.408-1.692.408Zm0-1.08c.608 0 1.1-.196 1.476-.588.384-.392.576-.908.576-1.548s-.192-1.156-.576-1.548c-.376-.4-.868-.6-1.476-.6s-1.1.2-1.476.6c-.376.392-.564.908-.564 1.548 0 .632.188 1.148.564 1.548.376.392.868.588 1.476.588ZM84.493 15.96V7.296h.852l.288 1.032c.256-.328.58-.6.972-.816.4-.224.864-.336 1.392-.336.584 0 1.104.14 1.56.42.456.272.812.652 1.068 1.14.264.488.396 1.044.396 1.668 0 .616-.132 1.168-.396 1.656a2.91 2.91 0 0 1-1.068 1.152 2.986 2.986 0 0 1-1.56.408c-.512 0-.964-.104-1.356-.312a3.296 3.296 0 0 1-.972-.792v3.444h-1.176Zm3.252-3.396c.4 0 .756-.092 1.068-.276.312-.184.552-.44.72-.768.176-.328.264-.7.264-1.116 0-.416-.088-.788-.264-1.116a1.853 1.853 0 0 0-.72-.768 2.062 2.062 0 0 0-1.068-.276c-.4 0-.76.092-1.08.276-.312.184-.556.44-.732.768-.176.328-.264.7-.264 1.116 0 .416.088.788.264 1.116.176.328.42.584.732.768.32.184.68.276 1.08.276ZM94.026 13.5h-1.74V7.296h1.14v4.884h.18l2.508-4.884h1.74V13.5h-1.14V8.628h-.18L94.026 13.5ZM102.854 10.332c.328.096.6.272.816.528.216.248.324.556.324.924 0 .344-.1.656-.3.936-.2.272-.488.492-.864.66-.368.16-.796.24-1.284.24-.656 0-1.22-.152-1.692-.456a2.201 2.201 0 0 1-.936-1.248l1.092-.18c.264.576.772.864 1.524.864.416 0 .732-.076.948-.228a.767.767 0 0 0 .336-.66.709.709 0 0 0-.312-.6c-.2-.152-.524-.228-.972-.228h-.816V9.852h.816c.384 0 .676-.072.876-.216a.668.668 0 0 0 .312-.576c0-.256-.112-.464-.336-.624-.216-.16-.484-.24-.804-.24-.312 0-.592.076-.84.228-.248.152-.436.36-.564.624l-1.092-.192c.184-.536.5-.948.948-1.236.456-.296.984-.444 1.584-.444.432 0 .82.076 1.164.228.352.152.624.364.816.636.2.272.3.576.3.912 0 .344-.096.636-.288.876-.192.24-.444.408-.756.504ZM107.824 7.176c.768 0 1.372.252 1.812.756.448.496.672 1.192.672 2.088v3.48h-.84l-.276-.972c-.2.312-.468.572-.804.78-.336.208-.74.312-1.212.312-.416 0-.788-.084-1.116-.252a1.905 1.905 0 0 1-.768-.696 1.931 1.931 0 0 1-.276-1.02c0-.584.232-1.052.696-1.404.464-.352 1.136-.528 2.016-.528h1.404c-.032-.488-.168-.864-.408-1.128-.24-.272-.56-.408-.96-.408-.304 0-.572.072-.804.216a1.428 1.428 0 0 0-.528.564l-1.092-.18c.16-.496.468-.888.924-1.176a2.86 2.86 0 0 1 1.56-.432Zm-.396 5.448c.504 0 .912-.164 1.224-.492.32-.336.48-.796.48-1.38v-.072h-1.368c-1.04 0-1.56.312-1.56.936a.9.9 0 0 0 .336.732c.224.184.52.276.888.276ZM118.096 15.336h-1.176V13.5h-5.064V7.296h1.176v5.124h2.832V7.296h1.176v5.124h1.056v2.916ZM120.862 13.5h-1.74V7.296h1.14v4.884h.18l2.508-4.884h1.74V13.5h-1.14V8.628h-.18l-2.508 4.872ZM128.034 13.5h-1.74V7.296h1.14v4.884h.18l2.508-4.884h1.74V13.5h-1.14V8.628h-.18l-2.508 4.872Z" fill="#6D7885"/><path fill-rule="evenodd" clip-rule="evenodd" d="M.5 5.5A.5.5 0 0 1 1 6v8.5a.5.5 0 0 1-1 0V6a.5.5 0 0 1 .5-.5Z" fill="#6D7885"/></svg>